<svg xmlns="http://www.w3.org/2000/svg" width="288.1083679199219" height="283.7939453125" viewBox="-37.31344985961914 -41.84562301635742 288.1083679199219 283.7939453125"><title>Neo4j Graph Visualization</title><desc>Created using Neo4j (http://www.neo4j.com/)</desc><g class="layer relationships"><g class="relationship" transform="translate(151.94944022430437 212.94835484080392) rotate(247.95700876898007)"><path class="outline" fill="#A5ABB6" stroke="none" d="M 25 0.5 L 32.32323991469554 0.5 L 32.32323991469554 -0.5 L 25 -0.5 Z M 77.32323991469553 0.5 L 84.64647982939108 0.5 L 84.64647982939108 3.5 L 91.64647982939108 0 L 84.64647982939108 -3.5 L 84.64647982939108 -0.5 L 77.32323991469553 -0.5 Z"/><text text-anchor="middle" pointer-events="none" font-size="8px" fill="#000000" x="54.82323991469554" y="3" transform="rotate(180 54.82323991469554 0)" font-family="sans-serif">ACTED_IN</text></g><g class="relationship" transform="translate(221.79491290887478 133.15452688912598) rotate(193.99841130686855)"><path class="outline" fill="#A5ABB6" stroke="none" d="M 25 0.5 L 32.55037976433828 0.5 L 32.55037976433828 -0.5 L 25 -0.5 Z M 77.55037976433829 0.5 L 85.10075952867656 0.5 L 85.10075952867656 3.5 L 92.10075952867656 0 L 85.10075952867656 -3.5 L 85.10075952867656 -0.5 L 77.55037976433829 -0.5 Z"/><text text-anchor="middle" pointer-events="none" font-size="8px" fill="#000000" x="55.05037976433828" y="3" transform="rotate(180 55.05037976433828 0)" font-family="sans-serif">ACTED_IN</text></g><g class="relationship" transform="translate(198.4360182596964 30.174157080583708) rotate(500.40708744225975)"><path class="outline" fill="#A5ABB6" stroke="none" d="M 25 0.5 L 32.5681185968511 0.5 L 32.5681185968511 -0.5 L 25 -0.5 Z M 77.5681185968511 0.5 L 85.1362371937022 0.5 L 85.1362371937022 3.5 L 92.1362371937022 0 L 85.1362371937022 -3.5 L 85.1362371937022 -0.5 L 77.5681185968511 -0.5 Z"/><text text-anchor="middle" pointer-events="none" font-size="8px" fill="#000000" x="55.0681185968511" y="3" transform="rotate(180 55.0681185968511 0)" font-family="sans-serif">ACTED_IN</text></g><g class="relationship" transform="translate(102.85015535698369 -12.84562203411052) rotate(447.4106618650085)"><path class="outline" fill="#A5ABB6" stroke="none" d="M 25 0.5 L 37.89716523056756 0.5 L 37.89716523056756 -0.5 L 25 -0.5 Z M 72.89716523056757 0.5 L 85.79433046113512 0.5 L 85.79433046113512 3.5 L 92.79433046113512 0 L 85.79433046113512 -3.5 L 85.79433046113512 -0.5 L 72.89716523056757 -0.5 Z"/><text text-anchor="middle" pointer-events="none" font-size="8px" fill="#000000" x="55.39716523056756" y="3" font-family="sans-serif">WROTE</text></g><g class="relationship" transform="translate(18.42359282721956 29.698461481037988) rotate(399.93337174556035)"><path class="outline" fill="#A5ABB6" stroke="none" d="M 25 0.5 L 37.52189185075974 0.5 L 37.52189185075974 -0.5 L 25 -0.5 Z M 72.52189185075974 0.5 L 85.04378370151947 0.5 L 85.04378370151947 3.5 L 92.04378370151947 0 L 85.04378370151947 -3.5 L 85.04378370151947 -0.5 L 72.52189185075974 -0.5 Z"/><text text-anchor="middle" pointer-events="none" font-size="8px" fill="#000000" x="55.02189185075974" y="3" font-family="sans-serif">WROTE</text></g><g class="relationship" transform="translate(-8.31345106684606 120.33639689843692) rotate(352.41666780489095)"><path class="outline" fill="#A5ABB6" stroke="none" d="M 25 0.5 L 37.75649187544719 0.5 L 37.75649187544719 -0.5 L 25 -0.5 Z M 72.75649187544718 0.5 L 85.51298375089438 0.5 L 85.51298375089438 3.5 L 92.51298375089438 0 L 85.51298375089438 -3.5 L 85.51298375089438 -0.5 L 72.75649187544718 -0.5 Z"/><text text-anchor="middle" pointer-events="none" font-size="8px" fill="#000000" x="55.25649187544719" y="3" font-family="sans-serif">WROTE</text></g><g class="relationship" transform="translate(47.601948371579994 205.61483644010005) rotate(301.00469283332865)"><path class="outline" fill="#A5ABB6" stroke="none" d="M 25 0.5 L 31.79328184971704 0.5 L 31.79328184971704 -0.5 L 25 -0.5 Z M 78.79328184971703 0.5 L 85.58656369943408 0.5 L 85.58656369943408 3.5 L 92.58656369943408 0 L 85.58656369943408 -3.5 L 85.58656369943408 -0.5 L 78.79328184971703 -0.5 Z"/><text text-anchor="middle" pointer-events="none" font-size="8px" fill="#000000" x="55.29328184971704" y="3" font-family="sans-serif">DIRECTED</text></g></g><g class="layer nodes"><g class="node" transform="translate(151.94944022430437,212.94835484080392)"><circle class="outline" cx="0" cy="0" r="25" fill="#57C7E3" stroke="#23b3d7" stroke-width="2px"/><text text-anchor="middle" pointer-events="none" font-family="sans-serif" dy="1.5625" font-size="25" fill="#2A2C34"/><text text-anchor="middle" pointer-events="none" font-family="sans-serif" dy="1.5625" font-size="25" fill="#2A2C34"/><text text-anchor="middle" pointer-events="none" x="0" y="0" font-size="10px" fill="#2A2C34" font-family="sans-serif"> Samuel</text><text text-anchor="middle" pointer-events="none" x="0" y="10" font-size="10px" fill="#2A2C34" font-family="sans-serif"> L. Jack…</text></g><g class="node" transform="translate(108.17176092719973,104.82843969124232)"><circle class="outline" cx="0" cy="0" r="25" fill="#F79767" stroke="#f36924" stroke-width="2px"/><text text-anchor="middle" pointer-events="none" font-family="sans-serif" dy="1.5625" font-size="25" fill="#FFFFFF"/><text text-anchor="middle" pointer-events="none" font-family="sans-serif" dy="1.5625" font-size="25" fill="#FFFFFF"/><text text-anchor="middle" pointer-events="none" x="0" y="0" font-size="10px" fill="#FFFFFF" font-family="sans-serif"> Captain</text><text text-anchor="middle" pointer-events="none" x="0" y="10" font-size="10px" fill="#FFFFFF" font-family="sans-serif"> America:</text></g><g class="node" transform="translate(221.79491290887478,133.15452688912598)"><circle class="outline" cx="0" cy="0" r="25" fill="#57C7E3" stroke="#23b3d7" stroke-width="2px"/><text text-anchor="middle" pointer-events="none" font-family="sans-serif" dy="1.5625" font-size="25" fill="#2A2C34"/><text text-anchor="middle" pointer-events="none" font-family="sans-serif" dy="1.5625" font-size="25" fill="#2A2C34"/><text text-anchor="middle" pointer-events="none" x="0" y="0" font-size="10px" fill="#2A2C34" font-family="sans-serif"> Chris</text><text text-anchor="middle" pointer-events="none" x="0" y="10" font-size="10px" fill="#2A2C34" font-family="sans-serif"> Evans</text></g><g class="node" transform="translate(198.4360182596964,30.174157080583708)"><circle class="outline" cx="0" cy="0" r="25" fill="#57C7E3" stroke="#23b3d7" stroke-width="2px"/><text text-anchor="middle" pointer-events="none" font-family="sans-serif" dy="1.5625" font-size="25" fill="#2A2C34"/><text text-anchor="middle" pointer-events="none" font-family="sans-serif" dy="1.5625" font-size="25" fill="#2A2C34"/><text text-anchor="middle" pointer-events="none" x="0" y="0" font-size="10px" fill="#2A2C34" font-family="sans-serif"> Hugo</text><text text-anchor="middle" pointer-events="none" x="0" y="10" font-size="10px" fill="#2A2C34" font-family="sans-serif"> Weaving</text></g><g class="node" transform="translate(102.85015535698369,-12.84562203411052)"><circle class="outline" cx="0" cy="0" r="25" fill="#57C7E3" stroke="#23b3d7" stroke-width="2px"/><text text-anchor="middle" pointer-events="none" font-family="sans-serif" dy="1.5625" font-size="25" fill="#2A2C34"/><text text-anchor="middle" pointer-events="none" font-family="sans-serif" dy="1.5625" font-size="25" fill="#2A2C34"/><text text-anchor="middle" pointer-events="none" x="0" y="0" font-size="10px" fill="#2A2C34" font-family="sans-serif"> Joe</text><text text-anchor="middle" pointer-events="none" x="0" y="10" font-size="10px" fill="#2A2C34" font-family="sans-serif"> Simon</text></g><g class="node" transform="translate(18.42359282721956,29.698461481037988)"><circle class="outline" cx="0" cy="0" r="25" fill="#57C7E3" stroke="#23b3d7" stroke-width="2px"/><text text-anchor="middle" pointer-events="none" font-family="sans-serif" dy="1.5625" font-size="25" fill="#2A2C34"/><text text-anchor="middle" pointer-events="none" font-family="sans-serif" dy="1.5625" font-size="25" fill="#2A2C34"/><text text-anchor="middle" pointer-events="none" x="0" y="0" font-size="10px" fill="#2A2C34" font-family="sans-serif"> Stephen</text><text text-anchor="middle" pointer-events="none" x="0" y="10" font-size="10px" fill="#2A2C34" font-family="sans-serif"> McFeely</text></g><g class="node" transform="translate(-8.31345106684606,120.33639689843692)"><circle class="outline" cx="0" cy="0" r="25" fill="#57C7E3" stroke="#23b3d7" stroke-width="2px"/><text text-anchor="middle" pointer-events="none" font-family="sans-serif" dy="1.5625" font-size="25" fill="#2A2C34"/><text text-anchor="middle" pointer-events="none" x="0" y="5" font-size="10px" fill="#2A2C34" font-family="sans-serif"> Christop…</text></g><g class="node" transform="translate(47.601948371579994,205.61483644010005)"><circle class="outline" cx="0" cy="0" r="25" fill="#57C7E3" stroke="#23b3d7" stroke-width="2px"/><text text-anchor="middle" pointer-events="none" font-family="sans-serif" dy="1.5625" font-size="25" fill="#2A2C34"/><text text-anchor="middle" pointer-events="none" font-family="sans-serif" dy="1.5625" font-size="25" fill="#2A2C34"/><text text-anchor="middle" pointer-events="none" x="0" y="0" font-size="10px" fill="#2A2C34" font-family="sans-serif"> Joe</text><text text-anchor="middle" pointer-events="none" x="0" y="10" font-size="10px" fill="#2A2C34" font-family="sans-serif"> Johnston</text></g></g></svg>