<svg xmlns="http://www.w3.org/2000/svg" width="162.38217163085938" height="192.32615661621094" viewBox="9.843994140625 1.466623306274414 162.38217163085938 192.32615661621094"><title>Neo4j Graph Visualization</title><desc>Created using Neo4j (http://www.neo4j.com/)</desc><g class="layer relationships"><g class="relationship" transform="translate(69.93611997635783 164.79278447098042) rotate(252.98951783747606)"><path class="outline" fill="#A5ABB6" stroke="none" d="M 24.018736134675446,-6.953439040707552 L 24.277555179777966,-5.987513214418485 A 104.26512576278691 104.26512576278691 0 0 1 27.89756651212284,-6.888404065069693 L 27.673466758881922,-7.862970276569641 A 105.26512576278691 105.26512576278691 0 0 0 24.018736134675446,-6.953439040707552 Z M 71.55361720331506,-8.566238563319942 L 71.3608633203069,-7.584991427994041 A 104.26512576278691 104.26512576278691 0 0 1 75.0078852033462,-6.800569503437625 L 74.32468850946304,-3.8793981155407917 L 81.93781789075268,-5.69330578235971 L 75.91881412852376,-10.69546468730007 L 75.2356174346406,-7.7742932994032365 A 105.26512576278691 105.26512576278691 0 0 0 71.55361720331506,-8.566238563319942"/><text text-anchor="middle" pointer-events="none" font-size="8px" fill="#000000" x="49.58449773963044" y="-7.026808537738219" transform="rotate(180 49.58449773963044 -10.02680853773822)" font-family="sans-serif">Connection</text></g><g class="relationship" transform="translate(38.84399454399157 63.16152865097774) rotate(349.1498890499157)"><path class="outline" fill="#A5ABB6" stroke="none" d="M 12.066987298107785,21.900635094610966 L 12.933012701892222,21.400635094610966 A 44.26082518635338 44.26082518635338 0 0 0 28.255403828334835,37.08059951252622 L 27.73556246115455,37.934862325112675 A 45.26082518635338 45.26082518635338 0 0 1 12.066987298107785,21.900635094610966 Z M 70.39226290337567,40.290367584913085 L 69.96964022429542,39.384061857728796 A 44.26082518635338 44.26082518635338 0 0 0 86.9253042864313,25.48649335849953 L 84.50818085297416,23.709553768239815 L 91.47435056928016,20.142695278809487 L 90.14813553104082,27.855746145512484 L 87.73101209758369,26.07880655525277 A 45.26082518635338 45.26082518635338 0 0 1 70.39226290337567,40.290367584913085"/><text text-anchor="middle" pointer-events="none" font-size="8px" fill="#000000" x="48.79607638318137" y="46.962959792933574" font-family="sans-serif">Connection</text></g><g class="relationship" transform="translate(38.84399454399157 63.16152865097774) rotate(349.1498890499157)"><path class="outline" fill="#A5ABB6" stroke="none" d="M 21.40063509461097,12.933012701892217 L 21.90063509461097,12.06698729810778 A 58.72675322225081 58.72675322225081 0 0 0 28.25429155879139,15.239454360958582 L 27.862481712606552,16.159500579597953 A 59.72675322225081 59.72675322225081 0 0 1 21.40063509461097,12.933012701892217 Z M 71.19954587697748,17.509632681029707 L 70.86576690698963,16.566981314301877 A 58.72675322225081 58.72675322225081 0 0 0 77.40458155810681,13.79616903483755 L 76.06921555787306,11.109759228903293 L 83.8954321053257,11.128050001947853 L 79.18506955841846,17.378048776083226 L 77.84970355818471,14.691638970148968 A 59.72675322225081 59.72675322225081 0 0 1 71.19954587697748,17.509632681029707"/><text text-anchor="middle" pointer-events="none" font-size="8px" fill="#000000" x="49.41974364889353" y="23.406158956181685" font-family="sans-serif">Connection</text></g><g class="relationship" transform="translate(38.84399454399157 63.16152865097774) rotate(349.1498890499157)"><path class="outline" fill="#A5ABB6" stroke="none" d="M 25 0.5 L 27.641090244055555 0.5 L 27.641090244055555 -0.5 L 25 -0.5 Z M 71.64109024405556 0.5 L 74.28218048811111 0.5 L 74.28218048811111 3.5 L 81.28218048811111 0 L 74.28218048811111 -3.5 L 74.28218048811111 -0.5 L 71.64109024405556 -0.5 Z"/><text text-anchor="middle" pointer-events="none" font-size="8px" fill="#000000" x="49.641090244055555" y="3" font-family="sans-serif">Connection</text></g><g class="relationship" transform="translate(38.84399454399157 63.16152865097774) rotate(432.98951783747606)"><path class="outline" fill="#A5ABB6" stroke="none" d="M 24.018736134675446,-6.953439040707552 L 24.277555179777966,-5.987513214418485 A 104.26512576278691 104.26512576278691 0 0 1 27.89756651212284,-6.888404065069693 L 27.673466758881922,-7.862970276569641 A 105.26512576278691 105.26512576278691 0 0 0 24.018736134675446,-6.953439040707552 Z M 71.55361720331506,-8.566238563319942 L 71.3608633203069,-7.584991427994041 A 104.26512576278691 104.26512576278691 0 0 1 75.0078852033462,-6.800569503437625 L 74.32468850946304,-3.8793981155407917 L 81.93781789075268,-5.69330578235971 L 75.91881412852376,-10.69546468730007 L 75.2356174346406,-7.7742932994032365 A 105.26512576278691 105.26512576278691 0 0 0 71.55361720331506,-8.566238563319942"/><text text-anchor="middle" pointer-events="none" font-size="8px" fill="#000000" x="49.58449773963044" y="-7.026808537738219" font-family="sans-serif">Connection</text></g><g class="relationship" transform="translate(38.84399454399157 63.16152865097774) rotate(349.1498890499157)"><path class="outline" fill="#A5ABB6" stroke="none" d="M 21.40063509461097,-12.933012701892217 L 21.90063509461097,-12.06698729810778 A 58.72675322225081 58.72675322225081 0 0 1 28.25429155879139,-15.239454360958582 L 27.862481712606552,-16.159500579597953 A 59.72675322225081 59.72675322225081 0 0 0 21.40063509461097,-12.933012701892217 Z M 71.19954587697748,-17.5096326810297 L 70.86576690698963,-16.56698131430187 A 58.72675322225081 58.72675322225081 0 0 1 77.40458155810681,-13.79616903483755 L 76.06921555787306,-11.109759228903293 L 83.8954321053257,-11.128050001947853 L 79.18506955841846,-17.378048776083226 L 77.84970355818471,-14.691638970148968 A 59.72675322225081 59.72675322225081 0 0 0 71.19954587697748,-17.5096326810297"/><text text-anchor="middle" pointer-events="none" font-size="8px" fill="#000000" x="49.41974364889354" y="-17.406158956181685" font-family="sans-serif">Connection</text></g><g class="relationship" transform="translate(38.84399454399157 63.16152865097774) rotate(349.1498890499157)"><path class="outline" fill="#A5ABB6" stroke="none" d="M 12.066987298107785,-21.900635094610966 L 12.933012701892222,-21.400635094610966 A 44.26082518635338 44.26082518635338 0 0 1 28.25540382833482,-37.08059951252622 L 27.735562461154537,-37.934862325112675 A 45.26082518635338 45.26082518635338 0 0 0 12.066987298107785,-21.900635094610966 Z M 70.39226290337567,-40.290367584913085 L 69.96964022429542,-39.384061857728796 A 44.26082518635338 44.26082518635338 0 0 1 86.9253042864313,-25.48649335849953 L 84.50818085297416,-23.709553768239815 L 91.47435056928016,-20.142695278809487 L 90.14813553104082,-27.855746145512484 L 87.73101209758369,-26.07880655525277 A 45.26082518635338 45.26082518635338 0 0 0 70.39226290337567,-40.290367584913085"/><text text-anchor="middle" pointer-events="none" font-size="8px" fill="#000000" x="48.796076383181365" y="-40.962959792933574" font-family="sans-serif">Connection</text></g></g><g class="layer nodes"><g class="node" transform="translate(69.93611997635783,164.79278447098042)"><circle class="outline" cx="0" cy="0" r="25" fill="#F79767" stroke="#f36924" stroke-width="2px"/><text text-anchor="middle" pointer-events="none" font-family="sans-serif" dy="1.5625" font-size="25" fill="#FFFFFF"/><text text-anchor="middle" pointer-events="none" x="0" y="5" font-size="10px" fill="#FFFFFF" font-family="sans-serif"> MSN</text></g><g class="node" transform="translate(143.226167552225,43.15493355369424)"><circle class="outline" cx="0" cy="0" r="25" fill="#F79767" stroke="#f36924" stroke-width="2px"/><text text-anchor="middle" pointer-events="none" font-family="sans-serif" dy="1.5625" font-size="25" fill="#FFFFFF"/><text text-anchor="middle" pointer-events="none" x="0" y="5" font-size="10px" fill="#FFFFFF" font-family="sans-serif"> GRR</text></g><g class="node" transform="translate(38.84399454399157,63.16152865097774)"><circle class="outline" cx="0" cy="0" r="25" fill="#F79767" stroke="#f36924" stroke-width="2px"/><text text-anchor="middle" pointer-events="none" font-family="sans-serif" dy="1.5625" font-size="25" fill="#FFFFFF"/><text text-anchor="middle" pointer-events="none" x="0" y="5" font-size="10px" fill="#FFFFFF" font-family="sans-serif"> ORD</text></g></g></svg>