<svg xmlns="http://www.w3.org/2000/svg" width="326.9491882324219" height="415.07257080078125" viewBox="-68.78671264648438 -112.87919616699219 326.9491882324219 415.07257080078125"><title>Neo4j Graph Visualization</title><desc>Created using Neo4j (http://www.neo4j.com/)</desc><g class="layer relationships"><g class="relationship" transform="translate(167.70172789105663 273.1933722305091) rotate(245.5217418299536)"><path class="outline" fill="#A5ABB6" stroke="none" d="M 21.40063509461097,12.933012701892217 L 21.90063509461097,12.06698729810778 A 63.983065906749644 63.983065906749644 0 0 0 22.745218782898984,12.546099939317244 L 22.25841889571507,13.419613459440278 A 64.98306590674964 64.98306590674964 0 0 1 21.40063509461097,12.933012701892217 Z M 82.08906911851372,15.202876637801914 L 81.65515759591813,14.301921150245086 A 63.983065906749644 63.983065906749644 0 0 0 82.52677677281919,13.87396024087697 L 81.1841742426482,11.191159755194441 L 89.01041166110693,11.188354418091716 L 84.31691347971386,17.451027555120344 L 82.97431094954287,14.768227069437815 A 64.98306590674964 64.98306590674964 0 0 1 82.08906911851372,15.202876637801914"/><text text-anchor="middle" pointer-events="none" font-size="8px" fill="#000000" x="51.971091895408634" y="24.11047006459343" transform="rotate(180 51.971091895408634 21.11047006459343)" font-family="sans-serif">PublicTransport</text></g><g class="relationship" transform="translate(121.55700973507265 171.83612274605755) rotate(318.32435495283806)"><path class="outline" fill="#A5ABB6" stroke="none" d="M 24.018736134675446,-6.953439040707552 L 24.277555179777966,-5.987513214418485 A 138.17288319388183 138.17288319388183 0 0 1 48.495303555324156,-10.212557228356076 L 48.41175586459849,-11.20906100826582 A 139.17288319388183 139.17288319388183 0 0 0 24.018736134675446,-6.953439040707552 Z M 67.79981403231342,-11.479103538463164 L 67.74405255790018,-10.480659419861013 A 138.17288319388183 138.17288319388183 0 0 1 92.07007886289755,-6.931747261247273 L 91.37462945367724,-4.013468638631686 L 98.99530388387063,-5.795411743502501 L 92.99734474185794,-10.822785424734723 L 92.30189533263764,-7.904506802119136 A 139.17288319388183 139.17288319388183 0 0 0 67.79981403231342,-11.479103538463164"/><text text-anchor="middle" pointer-events="none" font-size="8px" fill="#000000" x="58.10803981856374" y="-8.182190912109746" font-family="sans-serif">trek</text></g><g class="relationship" transform="translate(213.6630304019023 89.84285675163622) rotate(277.55061139980893)"><path class="outline" fill="#A5ABB6" stroke="none" d="M 24.018736134675446,-6.953439040707552 L 24.277555179777966,-5.987513214418485 A 127.53421342664461 127.53421342664461 0 0 1 45.818587789716624,-9.816550463935954 L 45.72867269619827,-10.812499898374057 A 128.5342134266446 128.5342134266446 0 0 0 24.018736134675446,-6.953439040707552 Z M 65.11963336985286,-11.094190294501743 L 65.05868621310569,-10.096049300410996 A 127.53421342664461 127.53421342664461 0 0 1 86.70185365848646,-6.894344271548649 L 86.00989780558956,-3.9752353154386313 L 93.62843386489266,-5.766298774140875 L 87.62446146234899,-10.786489546362006 L 86.9325056094521,-7.867380590251988 A 128.5342134266446 128.5342134266446 0 0 0 65.11963336985286,-11.094190294501743"/><text text-anchor="middle" pointer-events="none" font-size="8px" fill="#000000" x="55.42609551632512" y="-7.8196287263074" font-family="sans-serif">trek</text></g><g class="relationship" transform="translate(229.16245735446634 -27.08872376139184) rotate(516.7941330485321)"><path class="outline" fill="#A5ABB6" stroke="none" d="M 21.40063509461097,12.933012701892217 L 21.90063509461097,12.06698729810778 A 56.220272052002514 56.220272052002514 0 0 0 38.71598338650372,18.452815147198663 L 38.51508098383194,19.432426409180017 A 57.220272052002514 57.220272052002514 0 0 1 21.40063509461097,12.933012701892217 Z M 57.91731952364009,20.05018980127062 L 57.77914212392689,19.059782306242184 A 56.220272052002514 56.220272052002514 0 0 0 74.96666618822005,13.756599107895214 L 73.63498132668873,11.068362617262679 L 81.46116547661785,11.09737384609425 L 76.74224600359513,17.340914428738596 L 75.41056114206381,14.652677938106061 A 57.220272052002514 57.220272052002514 0 0 1 57.91731952364009,20.05018980127062"/><text text-anchor="middle" pointer-events="none" font-size="8px" fill="#000000" x="48.20572373229286" y="23.07034665090496" transform="rotate(180 48.20572373229286 20.07034665090496)" font-family="sans-serif">trek</text></g><g class="relationship" transform="translate(133.702368603684 13.837093562354928) rotate(192.46212026891402)"><path class="outline" fill="#A5ABB6" stroke="none" d="M 24.018736134675446,6.953439040707552 L 24.277555179777966,5.987513214418485 A 119.16293283550739 119.16293283550739 0 0 0 43.71770641177555,9.50119170389226 L 43.622026614503,10.49660386796998 A 120.16293283550739 120.16293283550739 0 0 1 24.018736134675446,6.953439040707552 Z M 63.015448770539436,10.788167947752939 L 62.949735851286135,9.790329377520663 A 119.16293283550739 119.16293283550739 0 0 0 82.48672772698308,6.8626400327851265 L 81.79773320306812,3.942830698938957 L 89.41444859327663,5.7416210326246 L 83.40538709220301,10.755719144580018 L 82.71639256828806,7.835909810733849 A 120.16293283550739 120.16293283550739 0 0 1 63.015448770539436,10.788167947752939"/><text text-anchor="middle" pointer-events="none" font-size="8px" fill="#000000" x="53.32036161509072" y="13.534370489904418" transform="rotate(180 53.32036161509072 10.534370489904418)" font-family="sans-serif">trek</text></g><g class="relationship" transform="translate(133.702368603684 13.837093562354928) rotate(192.46212026891402)"><path class="outline" fill="#A5ABB6" stroke="none" d="M 24.018736134675446,-6.953439040707552 L 24.277555179777966,-5.987513214418485 A 119.16293283550739 119.16293283550739 0 0 1 30.373852384367922,-7.450274215371863 L 30.1661926810131,-8.428475343771638 A 120.16293283550739 120.16293283550739 0 0 0 24.018736134675446,-6.953439040707552 Z M 76.52737248677607,-9.125477379769293 L 76.34921288036732,-8.141475776800945 A 119.16293283550739 119.16293283550739 0 0 1 82.48672772698308,-6.8626400327851265 L 81.79773320306812,-3.942830698938957 L 89.41444859327663,-5.7416210326246 L 83.40538709220301,-10.755719144580018 L 82.71639256828806,-7.835909810733849 A 120.16293283550739 120.16293283550739 0 0 0 76.52737248677607,-9.125477379769293"/><text text-anchor="middle" pointer-events="none" font-size="8px" fill="#000000" x="53.3203616150907" y="-7.534370489904418" transform="rotate(180 53.3203616150907 -10.534370489904418)" font-family="sans-serif">twowheeler</text></g><g class="relationship" transform="translate(229.16245735446634 -27.08872376139184) rotate(516.7941330485321)"><path class="outline" fill="#A5ABB6" stroke="none" d="M 25 0.5 L 37.4257087409445 0.5 L 37.4257087409445 -0.5 L 25 -0.5 Z M 59.4374274909445 0.5 L 71.863136231889 0.5 L 71.863136231889 3.5 L 78.863136231889 0 L 71.863136231889 -3.5 L 71.863136231889 -0.5 L 59.4374274909445 -0.5 Z"/><text text-anchor="middle" pointer-events="none" font-size="8px" fill="#000000" x="48.4315681159445" y="3" transform="rotate(180 48.4315681159445 0)" font-family="sans-serif">road</text></g><g class="relationship" transform="translate(229.16245735446634 -27.08872376139184) rotate(516.7941330485321)"><path class="outline" fill="#A5ABB6" stroke="none" d="M 21.40063509461097,-12.933012701892217 L 21.90063509461097,-12.06698729810778 A 56.220272052002514 56.220272052002514 0 0 1 25.99185459977966,-14.21000098831039 L 25.5646258503596,-15.114144558585025 A 57.220272052002514 57.220272052002514 0 0 0 21.40063509461097,-12.933012701892217 Z M 71.1162515779802,-16.564499205395506 L 70.74740536840281,-15.63500876774679 A 56.220272052002514 56.220272052002514 0 0 1 74.96666618822005,-13.756599107895214 L 73.63498132668873,-11.068362617262679 L 81.46116547661785,-11.09737384609425 L 76.74224600359513,-17.340914428738596 L 75.41056114206381,-14.652677938106061 A 57.220272052002514 57.220272052002514 0 0 0 71.1162515779802,-16.564499205395506"/><text text-anchor="middle" pointer-events="none" font-size="8px" fill="#000000" x="48.20572373229287" y="-17.07034665090496" transform="rotate(180 48.20572373229287 -20.07034665090496)" font-family="sans-serif">twowheeler</text></g><g class="relationship" transform="translate(229.16245735446634 -27.08872376139184) rotate(207.28936976523283)"><path class="outline" fill="#A5ABB6" stroke="none" d="M 25 0.5 L 48.764826467808895 0.5 L 48.764826467808895 -0.5 L 25 -0.5 Z M 68.10076396780889 0.5 L 91.86559043561779 0.5 L 91.86559043561779 3.5 L 98.86559043561779 0 L 91.86559043561779 -3.5 L 91.86559043561779 -0.5 L 68.10076396780889 -0.5 Z"/><text text-anchor="middle" pointer-events="none" font-size="8px" fill="#000000" x="58.432795217808895" y="3" transform="rotate(180 58.432795217808895 0)" font-family="sans-serif">trek</text></g><g class="relationship" transform="translate(119.08282078145847 -83.879199247328) rotate(502.8137462589366)"><path class="outline" fill="#A5ABB6" stroke="none" d="M 25 0.5 L 47.36277751182792 0.5 L 47.36277751182792 -0.5 L 25 -0.5 Z M 66.69871501182791 0.5 L 89.06149252365584 0.5 L 89.06149252365584 3.5 L 96.06149252365584 0 L 89.06149252365584 -3.5 L 89.06149252365584 -0.5 L 66.69871501182791 -0.5 Z"/><text text-anchor="middle" pointer-events="none" font-size="8px" fill="#000000" x="57.03074626182792" y="3" transform="rotate(180 57.03074626182792 0)" font-family="sans-serif">trek</text></g><g class="relationship" transform="translate(213.6630304019023 89.84285675163622) rotate(277.55061139980893)"><path class="outline" fill="#A5ABB6" stroke="none" d="M 24.018736134675446,6.953439040707552 L 24.277555179777966,5.987513214418485 A 127.53421342664461 127.53421342664461 0 0 0 32.45128980296474,7.891771384809346 L 32.25656128230716,8.87262856260972 A 128.5342134266446 128.5342134266446 0 0 1 24.018736134675446,6.953439040707552 Z M 78.6424086403668,9.546470768620821 L 78.47625389017033,8.56037107843369 A 127.53421342664461 127.53421342664461 0 0 0 86.70185365848646,6.894344271548649 L 86.00989780558956,3.9752353154386313 L 93.62843386489266,5.766298774140875 L 87.62446146234899,10.786489546362006 L 86.9325056094521,7.867380590251988 A 128.5342134266446 128.5342134266446 0 0 1 78.6424086403668,9.546470768620821"/><text text-anchor="middle" pointer-events="none" font-size="8px" fill="#000000" x="55.426095516325134" y="13.8196287263074" font-family="sans-serif">twowheeler</text></g><g class="relationship" transform="translate(121.55700973507265 171.83612274605755) rotate(318.32435495283806)"><path class="outline" fill="#A5ABB6" stroke="none" d="M 24.018736134675446,6.953439040707552 L 24.277555179777966,5.987513214418485 A 138.17288319388183 138.17288319388183 0 0 0 35.103661662643404,8.426981029084175 L 34.92319450709127,9.410562040372497 A 139.17288319388183 139.17288319388183 0 0 1 24.018736134675446,6.953439040707552 Z M 81.333233234863,10.056974598875826 L 81.18022997820044,9.068748914403585 A 138.17288319388183 138.17288319388183 0 0 0 92.07007886289755,6.931747261247273 L 91.37462945367724,4.013468638631686 L 98.99530388387063,5.795411743502501 L 92.99734474185794,10.822785424734723 L 92.30189533263764,7.904506802119136 A 139.17288319388183 139.17288319388183 0 0 1 81.333233234863,10.056974598875826"/><text text-anchor="middle" pointer-events="none" font-size="8px" fill="#000000" x="58.108039818563725" y="14.182190912109746" font-family="sans-serif">twowheeler</text></g><g class="relationship" transform="translate(121.55700973507265 171.83612274605755) rotate(482.8023872572782)"><path class="outline" fill="#A5ABB6" stroke="none" d="M 25 0.5 L 44.139530938717925 0.5 L 44.139530938717925 -0.5 L 25 -0.5 Z M 63.475468438717925 0.5 L 82.61499937743585 0.5 L 82.61499937743585 3.5 L 89.61499937743585 0 L 82.61499937743585 -3.5 L 82.61499937743585 -0.5 L 63.475468438717925 -0.5 Z"/><text text-anchor="middle" pointer-events="none" font-size="8px" fill="#000000" x="53.807499688717925" y="3" transform="rotate(180 53.807499688717925 0)" font-family="sans-serif">trek</text></g><g class="relationship" transform="translate(59.4651094862317 268.1750764759876) rotate(209.98027737436405)"><path class="outline" fill="#A5ABB6" stroke="none" d="M 21.40063509461097,-12.933012701892217 L 21.90063509461097,-12.06698729810778 A 67.29991237010093 67.29991237010093 0 0 1 44.058649452979175,-20.09504179439176 L 43.88789229413646,-21.080354938881356 A 68.29991237010093 68.29991237010093 0 0 0 21.40063509461097,-12.933012701892217 Z M 63.292317519306906,-21.643289031288063 L 63.17896852703156,-20.649733795807848 A 67.29991237010093 67.29991237010093 0 0 1 85.765122932576,-13.919734652430334 L 84.41826241275439,-11.23906929842849 L 92.24448551188391,-11.22383766518019 L 87.56093695900483,-17.49395512443279 L 86.21407643918322,-14.813289770430947 A 68.29991237010093 68.29991237010093 0 0 0 63.292317519306906,-21.643289031288063"/><text text-anchor="middle" pointer-events="none" font-size="8px" fill="#000000" x="53.58450205462459" y="-18.55495316337384" transform="rotate(180 53.58450205462459 -21.55495316337384)" font-family="sans-serif">trek</text></g><g class="relationship" transform="translate(-39.78670945848745 210.91755628513053) rotate(297.21586316227996)"><path class="outline" fill="#A5ABB6" stroke="none" d="M 21.40063509461097,12.933012701892217 L 21.90063509461097,12.06698729810778 A 66.69688357775047 66.69688357775047 0 0 0 43.76673805278086,20.006858530776086 L 43.59458100113511,20.99192804587065 A 67.69688357775047 67.69688357775047 0 0 1 21.40063509461097,12.933012701892217 Z M 62.999014066919344,21.557606015599617 L 62.88453409717994,20.564180458988318 A 66.69688357775047 66.69688357775047 0 0 0 85.17603640480449,13.911591591651947 L 83.8299333524888,11.23054579335861 L 91.65616044287489,11.217525435964196 L 86.97084047455876,17.486319322709726 L 85.62473742224306,14.80527352441639 A 67.69688357775047 67.69688357775047 0 0 1 62.999014066919344,21.557606015599617"/><text text-anchor="middle" pointer-events="none" font-size="8px" fill="#000000" x="53.290985406080935" y="24.474140267344623" font-family="sans-serif">trek</text></g><g class="relationship" transform="translate(12.34970525887389 109.54011371844976) rotate(274.8893574372371)"><path class="outline" fill="#A5ABB6" stroke="none" d="M 25 0.5 L 47.176003652917814 0.5 L 47.176003652917814 -0.5 L 25 -0.5 Z M 66.51194115291781 0.5 L 88.68794480583563 0.5 L 88.68794480583563 3.5 L 95.68794480583563 0 L 88.68794480583563 -3.5 L 88.68794480583563 -0.5 L 66.51194115291781 -0.5 Z"/><text text-anchor="middle" pointer-events="none" font-size="8px" fill="#000000" x="56.843972402917814" y="3" font-family="sans-serif">trek</text></g><g class="relationship" transform="translate(-39.78670945848745 210.91755628513053) rotate(297.21586316227996)"><path class="outline" fill="#A5ABB6" stroke="none" d="M 25 0.5 L 42.493245005993025 0.5 L 42.493245005993025 -0.5 L 25 -0.5 Z M 64.50496375599303 0.5 L 81.99820876198605 0.5 L 81.99820876198605 3.5 L 88.99820876198605 0 L 81.99820876198605 -3.5 L 81.99820876198605 -0.5 L 64.50496375599303 -0.5 Z"/><text text-anchor="middle" pointer-events="none" font-size="8px" fill="#000000" x="53.499104380993025" y="3" font-family="sans-serif">road</text></g><g class="relationship" transform="translate(-39.78670945848745 210.91755628513053) rotate(297.21586316227996)"><path class="outline" fill="#A5ABB6" stroke="none" d="M 21.40063509461097,-12.933012701892217 L 21.90063509461097,-12.06698729810778 A 66.69688357775047 66.69688357775047 0 0 1 30.82726715844575,-16.37067305004667 L 30.461105976468314,-17.301224493446163 A 67.69688357775047 67.69688357775047 0 0 0 21.40063509461097,-12.933012701892217 Z M 76.32518541038719,-18.638253988186477 L 76.01385485256772,-17.68795230778818 A 66.69688357775047 66.69688357775047 0 0 1 85.17603640480449,-13.911591591651947 L 83.8299333524888,-11.23054579335861 L 91.65616044287489,-11.217525435964196 L 86.97084047455876,-17.486319322709726 L 85.62473742224306,-14.80527352441639 A 67.69688357775047 67.69688357775047 0 0 0 76.32518541038719,-18.638253988186477"/><text text-anchor="middle" pointer-events="none" font-size="8px" fill="#000000" x="53.290985406080935" y="-18.474140267344623" font-family="sans-serif">twowheeler</text></g><g class="relationship" transform="translate(59.4651094862317 268.1750764759876) rotate(209.98027737436405)"><path class="outline" fill="#A5ABB6" stroke="none" d="M 25 0.5 L 42.78582235594965 0.5 L 42.78582235594965 -0.5 L 25 -0.5 Z M 64.79754110594965 0.5 L 82.5833634618993 0.5 L 82.5833634618993 3.5 L 89.5833634618993 0 L 82.5833634618993 -3.5 L 82.5833634618993 -0.5 L 64.79754110594965 -0.5 Z"/><text text-anchor="middle" pointer-events="none" font-size="8px" fill="#000000" x="53.79168173094965" y="3" transform="rotate(180 53.79168173094965 0)" font-family="sans-serif">road</text></g><g class="relationship" transform="translate(59.4651094862317 268.1750764759876) rotate(209.98027737436405)"><path class="outline" fill="#A5ABB6" stroke="none" d="M 21.40063509461097,12.933012701892217 L 21.90063509461097,12.06698729810778 A 67.29991237010093 67.29991237010093 0 0 0 31.109529431002507,16.488519032088448 L 30.746363105996753,17.420243358475723 A 68.29991237010093 68.29991237010093 0 0 1 21.40063509461097,12.933012701892217 Z M 76.62393060421098,18.751179293024023 L 76.3153893690428,17.799968324731026 A 67.29991237010093 67.29991237010093 0 0 0 85.765122932576,13.919734652430334 L 84.41826241275439,11.23906929842849 L 92.24448551188391,11.22383766518019 L 87.56093695900483,17.49395512443279 L 86.21407643918322,14.813289770430947 A 68.29991237010093 68.29991237010093 0 0 1 76.62393060421098,18.751179293024023"/><text text-anchor="middle" pointer-events="none" font-size="8px" fill="#000000" x="53.58450205462459" y="24.55495316337384" transform="rotate(180 53.58450205462459 21.55495316337384)" font-family="sans-serif">twowheeler</text></g><g class="relationship" transform="translate(167.70172789105663 273.1933722305091) rotate(245.5217418299536)"><path class="outline" fill="#A5ABB6" stroke="none" d="M 25 0.5 L 41.17768181256402 0.5 L 41.17768181256402 -0.5 L 25 -0.5 Z M 63.18940056256402 0.5 L 79.36708237512804 0.5 L 79.36708237512804 3.5 L 86.36708237512804 0 L 79.36708237512804 -3.5 L 79.36708237512804 -0.5 L 63.18940056256402 -0.5 Z"/><text text-anchor="middle" pointer-events="none" font-size="8px" fill="#000000" x="52.18354118756402" y="3" transform="rotate(180 52.18354118756402 0)" font-family="sans-serif">road</text></g><g class="relationship" transform="translate(167.70172789105663 273.1933722305091) rotate(245.5217418299536)"><path class="outline" fill="#A5ABB6" stroke="none" d="M 21.40063509461097,-12.933012701892217 L 21.90063509461097,-12.06698729810778 A 63.983065906749644 63.983065906749644 0 0 1 42.454510993143046,-19.6084908128499 L 42.275750302439164,-20.59238339614295 A 64.98306590674964 64.98306590674964 0 0 0 21.40063509461097,-12.933012701892217 Z M 61.68007901019359,-21.170732866799028 L 61.56023377276845,-20.17794028067314 A 63.983065906749644 63.983065906749644 0 0 1 82.52677677281919,-13.87396024087697 L 81.1841742426482,-11.191159755194441 L 89.01041166110693,-11.188354418091716 L 84.31691347971386,-17.451027555120344 L 82.97431094954287,-14.768227069437815 A 64.98306590674964 64.98306590674964 0 0 0 61.68007901019359,-21.170732866799028"/><text text-anchor="middle" pointer-events="none" font-size="8px" fill="#000000" x="51.971091895408634" y="-18.11047006459343" transform="rotate(180 51.971091895408634 -21.11047006459343)" font-family="sans-serif">trek</text></g><g class="relationship" transform="translate(213.6630304019023 89.84285675163622) rotate(223.54744089952783)"><path class="outline" fill="#A5ABB6" stroke="none" d="M 24.018736134675446,-6.953439040707552 L 24.277555179777966,-5.987513214418485 A 112.33431032807789 112.33431032807789 0 0 1 42.00792510448635,-9.24097264168087 L 41.90694180763319,-10.235860762906896 A 113.33431032807789 113.33431032807789 0 0 0 24.018736134675446,-6.953439040707552 Z M 61.302484794367246,-10.535988852248053 L 61.232332422502004,-9.538452564827054 A 112.33431032807789 112.33431032807789 0 0 1 79.05487785945904,-6.835141620919968 L 78.3684518599603,-3.914727378520074 L 85.98358209164192,-5.720216662489543 L 79.97011252545737,-10.72902727745316 L 79.28368652595863,-7.808613035053266 A 113.33431032807789 113.33431032807789 0 0 0 61.302484794367246,-10.535988852248053"/><text text-anchor="middle" pointer-events="none" font-size="8px" fill="#000000" x="51.60601651650396" y="-7.301705525139468" transform="rotate(180 51.60601651650396 -10.301705525139468)" font-family="sans-serif">trek</text></g><g class="relationship" transform="translate(213.6630304019023 89.84285675163622) rotate(223.54744089952783)"><path class="outline" fill="#A5ABB6" stroke="none" d="M 24.018736134675446,6.953439040707552 L 24.277555179777966,5.987513214418485 A 112.33431032807789 112.33431032807789 0 0 0 28.68682097162665,7.073946133281439 L 28.46725320940441,8.049543385118852 A 113.33431032807789 113.33431032807789 0 0 1 24.018736134675446,6.953439040707552 Z M 74.8033850281113,8.766552170060834 L 74.61410809286659,7.784628424658791 A 112.33431032807789 112.33431032807789 0 0 0 79.05487785945904,6.835141620919968 L 78.3684518599603,3.914727378520074 L 85.98358209164192,5.720216662489543 L 79.97011252545737,10.72902727745316 L 79.28368652595863,7.808613035053266 A 113.33431032807789 113.33431032807789 0 0 1 74.8033850281113,8.766552170060834"/><text text-anchor="middle" pointer-events="none" font-size="8px" fill="#000000" x="51.60601651650398" y="13.301705525139468" transform="rotate(180 51.60601651650398 10.301705525139468)" font-family="sans-serif">twowheeler</text></g><g class="relationship" transform="translate(167.70172789105663 273.1933722305091) rotate(182.6545674725573)"><path class="outline" fill="#A5ABB6" stroke="none" d="M 24.018736134675446,-6.953439040707552 L 24.277555179777966,-5.987513214418485 A 108.40656617707604 108.40656617707604 0 0 1 41.026248719519884,-9.089885876131248 L 40.921928558851945,-10.084429642929976 A 109.40656617707604 109.40656617707604 0 0 0 24.018736134675446,-6.953439040707552 Z M 60.31873375967396,-10.38970723635498 L 60.245762868455415,-9.392373165426505 A 108.40656617707604 108.40656617707604 0 0 1 77.08379060745627,-6.818606804434697 L 76.39890908155887,-3.897829973609641 L 84.01308346703097,-5.707346049144951 L 77.99696597531947,-10.712975912201438 L 77.31208444942207,-7.792199081376382 A 109.40656617707604 109.40656617707604 0 0 0 60.31873375967396,-10.38970723635498"/><text text-anchor="middle" pointer-events="none" font-size="8px" fill="#000000" x="50.6214199008273" y="-7.16789170183911" transform="rotate(180 50.6214199008273 -10.16789170183911)" font-family="sans-serif">trek</text></g><g class="relationship" transform="translate(167.70172789105663 273.1933722305091) rotate(182.6545674725573)"><path class="outline" fill="#A5ABB6" stroke="none" d="M 24.018736134675446,6.953439040707552 L 24.277555179777966,5.987513214418485 A 108.40656617707604 108.40656617707604 0 0 0 39.70265345425621,8.942825812941877 L 39.586123744739524,9.936013019263001 A 109.40656617707604 109.40656617707604 0 0 1 24.018736134675446,6.953439040707552 Z M 61.658547542785044,10.283400970441605 L 61.57333045986223,9.287038562089037 A 108.40656617707604 108.40656617707604 0 0 0 77.08379060745627,6.818606804434697 L 76.39890908155887,3.897829973609641 L 84.01308346703097,5.707346049144951 L 77.99696597531947,10.712975912201438 L 77.31208444942207,7.792199081376382 A 109.40656617707604 109.40656617707604 0 0 1 61.658547542785044,10.283400970441605"/><text text-anchor="middle" pointer-events="none" font-size="8px" fill="#000000" x="50.62141990082735" y="13.167891701839125" transform="rotate(180 50.62141990082735 10.167891701839125)" font-family="sans-serif">road</text></g><g class="relationship" transform="translate(121.55700973507265 171.83612274605755) rotate(209.70208309623393)"><path class="outline" fill="#A5ABB6" stroke="none" d="M 25 0.5 L 49.69503326971939 0.5 L 49.69503326971939 -0.5 L 25 -0.5 Z M 69.03097076971939 0.5 L 93.72600403943878 0.5 L 93.72600403943878 3.5 L 100.72600403943878 0 L 93.72600403943878 -3.5 L 93.72600403943878 -0.5 L 69.03097076971939 -0.5 Z"/><text text-anchor="middle" pointer-events="none" font-size="8px" fill="#000000" x="59.36300201971939" y="3" transform="rotate(180 59.36300201971939 0)" font-family="sans-serif">trek</text></g></g><g class="layer nodes"><g class="node" transform="translate(167.70172789105663,273.1933722305091)"><circle class="outline" cx="0" cy="0" r="25" fill="#F79767" stroke="#f36924" stroke-width="2px"/><text text-anchor="middle" pointer-events="none" font-family="sans-serif" dy="1.5625" font-size="25" fill="#FFFFFF"/><text text-anchor="middle" pointer-events="none" x="0" y="5" font-size="10px" fill="#FFFFFF" font-family="sans-serif"> Darjeeling</text></g><g class="node" transform="translate(22.636162400095422,-10.708665156590131)"><circle class="outline" cx="0" cy="0" r="25" fill="#F16667" stroke="#eb2728" stroke-width="2px"/><text text-anchor="middle" pointer-events="none" font-family="sans-serif" dy="1.5625" font-size="25" fill="#FFFFFF"/><text text-anchor="middle" pointer-events="none" x="0" y="5" font-size="10px" fill="#FFFFFF" font-family="sans-serif"> Sandak…</text></g><g class="node" transform="translate(121.55700973507265,171.83612274605755)"><circle class="outline" cx="0" cy="0" r="25" fill="#F79767" stroke="#f36924" stroke-width="2px"/><text text-anchor="middle" pointer-events="none" font-family="sans-serif" dy="1.5625" font-size="25" fill="#FFFFFF"/><text text-anchor="middle" pointer-events="none" x="0" y="5" font-size="10px" fill="#FFFFFF" font-family="sans-serif"> Rimbik</text></g><g class="node" transform="translate(213.6630304019023,89.84285675163622)"><circle class="outline" cx="0" cy="0" r="25" fill="#57C7E3" stroke="#23b3d7" stroke-width="2px"/><text text-anchor="middle" pointer-events="none" font-family="sans-serif" dy="1.5625" font-size="25" fill="#2A2C34"/><text text-anchor="middle" pointer-events="none" x="0" y="5" font-size="10px" fill="#2A2C34" font-family="sans-serif"> Sirikhola</text></g><g class="node" transform="translate(229.16245735446634,-27.08872376139184)"><circle class="outline" cx="0" cy="0" r="25" fill="#57C7E3" stroke="#23b3d7" stroke-width="2px"/><text text-anchor="middle" pointer-events="none" font-family="sans-serif" dy="1.5625" font-size="25" fill="#2A2C34"/><text text-anchor="middle" pointer-events="none" x="0" y="5" font-size="10px" fill="#2A2C34" font-family="sans-serif"> Rammam</text></g><g class="node" transform="translate(133.702368603684,13.837093562354928)"><circle class="outline" cx="0" cy="0" r="25" fill="#57C7E3" stroke="#23b3d7" stroke-width="2px"/><text text-anchor="middle" pointer-events="none" font-family="sans-serif" dy="1.5625" font-size="25" fill="#2A2C34"/><text text-anchor="middle" pointer-events="none" x="0" y="5" font-size="10px" fill="#2A2C34" font-family="sans-serif"> Gurdum</text></g><g class="node" transform="translate(119.08282078145847,-83.879199247328)"><circle class="outline" cx="0" cy="0" r="25" fill="#F16667" stroke="#eb2728" stroke-width="2px"/><text text-anchor="middle" pointer-events="none" font-family="sans-serif" dy="1.5625" font-size="25" fill="#FFFFFF"/><text text-anchor="middle" pointer-events="none" x="0" y="5" font-size="10px" fill="#FFFFFF" font-family="sans-serif"> Sabargr…</text></g><g class="node" transform="translate(59.4651094862317,268.1750764759876)"><circle class="outline" cx="0" cy="0" r="25" fill="#57C7E3" stroke="#23b3d7" stroke-width="2px"/><text text-anchor="middle" pointer-events="none" font-family="sans-serif" dy="1.5625" font-size="25" fill="#2A2C34"/><text text-anchor="middle" pointer-events="none" x="0" y="5" font-size="10px" fill="#2A2C34" font-family="sans-serif"> Tumbling</text></g><g class="node" transform="translate(-39.78670945848745,210.91755628513053)"><circle class="outline" cx="0" cy="0" r="25" fill="#57C7E3" stroke="#23b3d7" stroke-width="2px"/><text text-anchor="middle" pointer-events="none" font-family="sans-serif" dy="1.5625" font-size="25" fill="#2A2C34"/><text text-anchor="middle" pointer-events="none" x="0" y="5" font-size="10px" fill="#2A2C34" font-family="sans-serif"> Gairibus</text></g><g class="node" transform="translate(12.34970525887389,109.54011371844976)"><circle class="outline" cx="0" cy="0" r="25" fill="#57C7E3" stroke="#23b3d7" stroke-width="2px"/><text text-anchor="middle" pointer-events="none" font-family="sans-serif" dy="1.5625" font-size="25" fill="#2A2C34"/><text text-anchor="middle" pointer-events="none" x="0" y="5" font-size="10px" fill="#2A2C34" font-family="sans-serif"> BhikeBh…</text></g></g></svg>