<svg xmlns="http://www.w3.org/2000/svg" width="158.85211181640625" height="242.6736602783203" viewBox="1.3408889770507812 -21.192691802978516 158.85211181640625 242.6736602783203"><title>Neo4j Graph Visualization</title><desc>Created using Neo4j (http://www.neo4j.com/)</desc><g class="layer relationships"><g class="relationship" transform="translate(131.19298940284827 7.807308413439089) rotate(519.0157540913676)"><path class="outline" fill="#A5ABB6" stroke="none" d="M 21.40063509461097,12.933012701892217 L 21.90063509461097,12.06698729810778 A 59.92173845119076 59.92173845119076 0 0 0 40.495583818919414,19.007163364419696 L 40.30590440048023,19.989009441063367 A 60.92173845119076 60.92173845119076 0 0 1 21.40063509461097,12.933012701892217 Z M 59.70954167418301,20.587364776378223 L 59.580720049037424,19.59569699486324 A 59.92173845119076 59.92173845119076 0 0 0 78.56796271479804,13.814453370642939 L 77.2308957795816,11.128889740648129 L 85.05712234065534,11.142224460137037 L 80.35071862841997,17.395204877302685 L 79.01365169320353,14.709641247307877 A 60.92173845119076 60.92173845119076 0 0 1 59.70954167418301,20.587364776378223"/><text text-anchor="middle" pointer-events="none" font-size="8px" fill="#000000" x="49.999147723397606" y="23.56626983191758" transform="rotate(180 49.999147723397606 20.56626983191758)" font-family="sans-serif">trek</text></g><g class="relationship" transform="translate(30.881495135464966 46.28164076587778) rotate(450.29027412806516)"><path class="outline" fill="#A5ABB6" stroke="none" d="M 25 0.5 L 40.18599162834208 0.5 L 40.18599162834208 -0.5 L 25 -0.5 Z M 59.52192912834208 0.5 L 74.70792075668416 0.5 L 74.70792075668416 3.5 L 81.70792075668416 0 L 74.70792075668416 -3.5 L 74.70792075668416 -0.5 L 59.52192912834208 -0.5 Z"/><text text-anchor="middle" pointer-events="none" font-size="8px" fill="#000000" x="49.85396037834208" y="3" transform="rotate(180 49.85396037834208 0)" font-family="sans-serif">trek</text></g><g class="relationship" transform="translate(30.340889589718447 152.98819210111068) rotate(381.5695954748565)"><path class="outline" fill="#A5ABB6" stroke="none" d="M 25 0.5 L 40.544545562989086 0.5 L 40.544545562989086 -0.5 L 25 -0.5 Z M 59.880483062989086 0.5 L 75.42502862597817 0.5 L 75.42502862597817 3.5 L 82.42502862597817 0 L 75.42502862597817 -3.5 L 75.42502862597817 -0.5 L 59.880483062989086 -0.5 Z"/><text text-anchor="middle" pointer-events="none" font-size="8px" fill="#000000" x="50.212514312989086" y="3" font-family="sans-serif">trek</text></g><g class="relationship" transform="translate(131.19298940284827 7.807308413439089) rotate(519.0157540913676)"><path class="outline" fill="#A5ABB6" stroke="none" d="M 25 0.5 L 39.21255025363938 0.5 L 39.21255025363938 -0.5 L 25 -0.5 Z M 61.22426900363938 0.5 L 75.43681925727876 0.5 L 75.43681925727876 3.5 L 82.43681925727876 0 L 75.43681925727876 -3.5 L 75.43681925727876 -0.5 L 61.22426900363938 -0.5 Z"/><text text-anchor="middle" pointer-events="none" font-size="8px" fill="#000000" x="50.21840962863938" y="3" transform="rotate(180 50.21840962863938 0)" font-family="sans-serif">road</text></g><g class="relationship" transform="translate(131.19298940284827 7.807308413439089) rotate(519.0157540913676)"><path class="outline" fill="#A5ABB6" stroke="none" d="M 21.40063509461097,-12.933012701892217 L 21.90063509461097,-12.06698729810778 A 59.92173845119076 59.92173845119076 0 0 1 23.4626097556298,-12.93797708962714 L 22.988676667261394,-13.81853794939186 A 60.92173845119076 60.92173845119076 0 0 0 21.40063509461097,-12.933012701892217 Z M 77.37406501925695,-15.495635228863783 L 76.95528903965337,-14.587545652386304 A 59.92173845119076 59.92173845119076 0 0 1 78.56796271479804,-13.814453370642939 L 77.2308957795816,-11.128889740648129 L 85.05712234065534,-11.142224460137037 L 80.35071862841997,-17.395204877302685 L 79.01365169320353,-14.709641247307877 A 60.92173845119076 60.92173845119076 0 0 0 77.37406501925695,-15.495635228863783"/><text text-anchor="middle" pointer-events="none" font-size="8px" fill="#000000" x="49.9991477233976" y="-17.56626983191758" transform="rotate(180 49.9991477233976 -20.56626983191758)" font-family="sans-serif">PublicTrans…</text></g></g><g class="layer nodes"><g class="node" transform="translate(131.19298940284827,7.807308413439089)"><circle class="outline" cx="0" cy="0" r="25" fill="#F79767" stroke="#f36924" stroke-width="2px"/><text text-anchor="middle" pointer-events="none" font-family="sans-serif" dy="1.5625" font-size="25" fill="#FFFFFF"/><text text-anchor="middle" pointer-events="none" x="0" y="5" font-size="10px" fill="#FFFFFF" font-family="sans-serif"> Darjeeling</text></g><g class="node" transform="translate(130.2431264703233,192.48097424600076)"><circle class="outline" cx="0" cy="0" r="25" fill="#F16667" stroke="#eb2728" stroke-width="2px"/><text text-anchor="middle" pointer-events="none" font-family="sans-serif" dy="1.5625" font-size="25" fill="#FFFFFF"/><text text-anchor="middle" pointer-events="none" x="0" y="5" font-size="10px" fill="#FFFFFF" font-family="sans-serif"> Sandak…</text></g><g class="node" transform="translate(30.881495135464966,46.28164076587778)"><circle class="outline" cx="0" cy="0" r="25" fill="#F79767" stroke="#f36924" stroke-width="2px"/><text text-anchor="middle" pointer-events="none" font-family="sans-serif" dy="1.5625" font-size="25" fill="#FFFFFF"/><text text-anchor="middle" pointer-events="none" x="0" y="5" font-size="10px" fill="#FFFFFF" font-family="sans-serif"> Rimbik</text></g><g class="node" transform="translate(30.340889589718447,152.98819210111068)"><circle class="outline" cx="0" cy="0" r="25" fill="#57C7E3" stroke="#23b3d7" stroke-width="2px"/><text text-anchor="middle" pointer-events="none" font-family="sans-serif" dy="1.5625" font-size="25" fill="#2A2C34"/><text text-anchor="middle" pointer-events="none" x="0" y="5" font-size="10px" fill="#2A2C34" font-family="sans-serif"> BhikeBh…</text></g></g></svg>